<svg width="350" height="350" viewBox="0 0 350 350" fill="none" xmlns="http://www.w3.org/2000/svg">
<path d="M192.139 346.798C180.939 350.835 169.732 351.12 158.802 347.281C148.427 343.637 140.034 337.153 134.191 327.458C129.065 318.953 127.166 309.756 127.052 300.079C126.892 286.52 127.022 272.958 126.898 259.399C126.873 256.749 127.576 255.65 130.418 255.703C138.38 255.85 146.348 255.744 154.313 255.738C157.828 255.735 158.051 255.914 158.05 259.401C158.047 273.625 158.064 287.849 157.976 302.073C157.936 308.417 160.731 313.275 165.834 316.607C174.535 322.288 183.41 318.918 188.886 310.887C190.419 308.638 191.21 305.44 191.227 302.671C191.39 276.974 191.288 251.275 191.335 225.577C191.339 223.251 190.615 222.444 188.222 222.449C141.662 222.538 95.1014 222.495 48.5415 222.627C34.8646 222.666 22.9642 218.244 13.409 208.623C5.16983 200.328 0.240196 190.162 0.0515916 178.182C-0.0164045 173.863 -0.143237 169.441 0.643596 165.232C2.90699 153.125 9.28683 143.55 19.383 136.374C27.9739 130.268 37.5251 127.677 47.9379 127.713C58.9378 127.751 69.9379 127.747 80.9379 127.734C83.9577 127.73 86.9774 127.588 89.9973 127.58C93.3492 127.57 94.2914 128.634 94.1441 131.931C93.9794 135.616 93.7848 139.306 93.7929 142.993C93.8016 146.967 93.9158 150.948 94.2021 154.91C94.3975 157.615 93.2629 158.345 90.7396 158.327C76.4213 158.225 62.1021 158.199 47.7833 158.223C40.2129 158.236 34.5272 161.869 31.6294 168.642C27.6688 177.898 32.2934 186.588 40.7443 190.138C44.0849 191.541 48.0602 191.928 51.7481 191.935C105.041 192.034 158.334 191.994 211.627 191.967C213.991 191.965 216.359 191.827 218.718 191.655C221.376 191.462 222.359 192.459 222.347 195.265C222.249 217.739 222.303 240.213 222.298 262.687C222.295 275.394 222.389 288.102 222.202 300.807C222.11 307.03 221.807 313.289 219.337 319.188C215.498 328.354 209.896 336.119 201.441 341.552C198.513 343.433 195.377 344.991 192.139 346.798Z" fill="#2563EB"/>
<path d="M339.57 203.85C331.622 213.715 321.961 220.348 309.326 221.91C306.236 222.291 303.104 222.488 299.99 222.505C286.337 222.583 272.682 222.565 259.028 222.576C255.663 222.578 255.132 221.618 255.239 218.253C255.484 210.583 255.479 202.903 255.432 195.228C255.413 192.053 255.646 191.66 259.081 191.664C273.115 191.681 287.149 191.648 301.182 191.747C304.938 191.774 308.305 190.782 311.349 188.718C316.838 184.996 319.537 179.783 318.666 173.155C317.859 167.01 314.452 162.417 308.759 159.967C306.251 158.888 303.333 158.278 300.6 158.274C244.086 158.191 187.572 158.225 131.058 158.237C126.911 158.238 126.947 158.238 126.95 154.157C126.976 118.409 126.986 82.6609 127.001 46.913C127.006 34.0868 131.697 23.1091 140.573 14.0281C146.822 7.63406 154.483 3.12203 163.205 1.23367C183.556 -3.1724 205.107 4.18962 216.166 23.8693C220.427 31.4524 222.159 39.483 222.203 48.0011C222.277 62.3189 222.224 76.6374 222.307 90.9551C222.322 93.5177 221.322 94.5515 218.776 94.5307C210.906 94.4666 203.036 94.5108 195.166 94.5126C191.584 94.5134 191.276 94.2016 191.28 90.6339C191.295 76.3158 191.305 61.9978 191.324 47.6797C191.334 40.2013 187.537 35.0882 180.982 32.1768C170.276 27.4216 157.865 36.4794 157.888 46.8989C157.944 72.6904 157.942 98.4822 157.855 124.274C157.845 127.219 159.301 127.387 161.587 127.384C207.671 127.337 253.754 127.297 299.838 127.373C308.126 127.387 316.314 128.719 323.713 132.638C336.528 139.427 344.999 149.99 348.035 164.176C350.096 173.803 349.531 183.666 345.936 192.976C344.465 196.785 341.823 200.142 339.57 203.85Z" fill="#2563EB"/>
</svg>
